<mxfile host="app.diagrams.net" modified="2024-02-26T22:59:58.016Z" agent="Mozilla/5.0 (Macintosh; Intel Mac OS X 10_15_7) AppleWebKit/537.36 (KHTML, like Gecko) Chrome/122.0.0.0 Safari/537.36" etag="SBJaJrfAfBaW8HsEdUIf" version="22.1.17" type="device">
  <diagram name="Page-1" id="8cHM2WvZVfhxiCrg82s9">
    <mxGraphModel dx="1271" dy="1895" grid="1" gridSize="10" guides="1" tooltips="1" connect="1" arrows="1" fold="1" page="1" pageScale="1" pageWidth="850" pageHeight="1100" math="0" shadow="0">
      <root>
        <mxCell id="0" />
        <mxCell id="1" parent="0" />
        <mxCell id="Q6FmVlhN1N124va3hYFK-71" value="" style="group" parent="1" vertex="1" connectable="0">
          <mxGeometry x="130.00407967507837" y="-90.00343691282471" width="311.0918406498432" height="659.15" as="geometry" />
        </mxCell>
        <mxCell id="Q6FmVlhN1N124va3hYFK-58" value="" style="shape=parallelogram;perimeter=parallelogramPerimeter;whiteSpace=wrap;html=1;fixedSize=1;size=60.319999999999936;flipH=1;rotation=-90;" parent="Q6FmVlhN1N124va3hYFK-71" vertex="1">
          <mxGeometry x="-52.584079675078385" y="171.0434369128247" width="416.25" height="310.63" as="geometry" />
        </mxCell>
        <mxCell id="Q6FmVlhN1N124va3hYFK-70" value="" style="verticalLabelPosition=bottom;verticalAlign=top;html=1;shape=mxgraph.basic.obtuse_triangle;dx=0.43;rotation=120;fillColor=#EDEDED;" parent="Q6FmVlhN1N124va3hYFK-71" vertex="1">
          <mxGeometry x="51.7459203249216" y="30.053436912824708" width="207.6" height="239.36" as="geometry" />
        </mxCell>
        <mxCell id="Q6FmVlhN1N124va3hYFK-78" value="" style="verticalLabelPosition=bottom;verticalAlign=top;html=1;shape=mxgraph.basic.obtuse_triangle;dx=0.43;rotation=120;fillColor=#FAFAFA;dashed=1;" parent="Q6FmVlhN1N124va3hYFK-71" vertex="1">
          <mxGeometry x="51.74592032492159" y="384.4734369128247" width="207.6" height="239.36" as="geometry" />
        </mxCell>
        <mxCell id="Q6FmVlhN1N124va3hYFK-80" value="" style="endArrow=none;dashed=1;html=1;rounded=0;exitX=0;exitY=0;exitDx=89.268;exitDy=239.36;exitPerimeter=0;entryX=0;entryY=0;entryDx=89.268;entryDy=239.36;entryPerimeter=0;" parent="Q6FmVlhN1N124va3hYFK-71" source="Q6FmVlhN1N124va3hYFK-78" target="Q6FmVlhN1N124va3hYFK-70" edge="1">
          <mxGeometry width="50" height="50" relative="1" as="geometry">
            <mxPoint x="309.9959203249216" y="354.4734369128247" as="sourcePoint" />
            <mxPoint x="359.9959203249216" y="304.4734369128247" as="targetPoint" />
          </mxGeometry>
        </mxCell>
        <mxCell id="Q6FmVlhN1N124va3hYFK-90" value="" style="group;rotation=0;" parent="Q6FmVlhN1N124va3hYFK-71" vertex="1" connectable="0">
          <mxGeometry x="115.55000000000003" y="429.15" width="80" height="150" as="geometry" />
        </mxCell>
        <mxCell id="Q6FmVlhN1N124va3hYFK-87" value="" style="endArrow=classic;html=1;rounded=0;width=2;strokeWidth=3;" parent="Q6FmVlhN1N124va3hYFK-90" edge="1">
          <mxGeometry width="50" height="50" relative="1" as="geometry">
            <mxPoint x="24.445920324921588" y="80.85343691282475" as="sourcePoint" />
            <mxPoint x="104.44592032492159" y="220.85343691282475" as="targetPoint" />
          </mxGeometry>
        </mxCell>
        <mxCell id="Q6FmVlhN1N124va3hYFK-88" value="" style="endArrow=classic;html=1;rounded=0;rotate=5;strokeWidth=3;" parent="Q6FmVlhN1N124va3hYFK-90" edge="1">
          <mxGeometry width="50" height="50" relative="1" as="geometry">
            <mxPoint x="24.445920324921588" y="80.85343691282475" as="sourcePoint" />
            <mxPoint x="224.4459203249216" y="40.85343691282475" as="targetPoint" />
          </mxGeometry>
        </mxCell>
        <mxCell id="Q6FmVlhN1N124va3hYFK-94" value="" style="shape=image;verticalLabelPosition=bottom;labelBackgroundColor=default;verticalAlign=top;aspect=fixed;imageAspect=0;image=data:image/svg+xml,PHN2ZyB4bWxuczp4bGluaz0iaHR0cDovL3d3dy53My5vcmcvMTk5OS94bGluayIgeG1sbnM9Imh0dHA6Ly93d3cudzMub3JnLzIwMDAvc3ZnIiB2aWV3Qm94PSItLjIzOTA1MSAtLjIyODAxNyAxNC4zOTY4MTYgMTkuNzIwNDE4IiBoZWlnaHQ9IjE5LjcyMDQxOHB0IiB3aWR0aD0iMTQuMzk2ODE2cHQiIHZlcnNpb249IjEuMSI+JiN4YTs8ZGVmcz4mI3hhOzxwYXRoIGQ9Ik0xMS43NDkwNjMtMTAuMTEzMTE4QzEwLjk1NTg3OC05Ljk2NDM5NSAxMC42NTg0MzMtOS4zNjk1MDYgMTAuNjU4NDMzLTguODk4NTUyQzEwLjY1ODQzMy04LjMwMzY2MyAxMS4xMjkzODctOC4xMDUzNjYgMTEuNDc2NDA2LTguMTA1MzY2QzEyLjIyMDAxNy04LjEwNTM2NiAxMi43NDA1NDUtOC43NDk4MyAxMi43NDA1NDUtOS40MTkwOEMxMi43NDA1NDUtMTAuNDYwMTM3IDExLjU1MDc2Ny0xMC45MzEwOTEgMTAuNTA5NzExLTEwLjkzMTA5MUM4Ljk5NzctMTAuOTMxMDkxIDguMTU0OTQxLTkuNDQzODY3IDcuOTMxODU3LTguOTcyOTEzQzcuMzYxNzU1LTEwLjgzMTk0MiA1LjgyNDk1OC0xMC45MzEwOTEgNS4zNzg3OTEtMTAuOTMxMDkxQzIuODUwNTExLTEwLjkzMTA5MSAxLjUxMjAxLTcuNjgzOTg3IDEuNTEyMDEtNy4xMzg2NzFDMS41MTIwMS03LjAzOTUyMyAxLjYxMTE1OC02LjkxNTU4OCAxLjc4NDY2OC02LjkxNTU4OEMxLjk4Mjk2NC02LjkxNTU4OCAyLjAzMjUzOC03LjA2NDMxIDIuMDgyMTEyLTcuMTYzNDU4QzIuOTI0ODcyLTkuOTE0ODIxIDQuNTg1NjA1LTEwLjQzNTM0OSA1LjMwNDQyOS0xMC40MzUzNDlDNi40MTk4NDctMTAuNDM1MzQ5IDYuNjQyOTMtOS4zOTQyOTMgNi42NDI5My04Ljc5OTQwNEM2LjY0MjkzLTguMjU0MDg5IDYuNDk0MjA4LTcuNjgzOTg3IDYuMTk2NzYzLTYuNDk0MjA4TDUuMzU0MDA0LTMuMDk4MzgyQzQuOTgyMTk4LTEuNjExMTU4IDQuMjYzMzczLS4yNDc4NzEgMi45NDk2NTktLjI0Nzg3MUMyLjgyNTcyNC0uMjQ3ODcxIDIuMjA2MDQ4LS4yNDc4NzEgMS42ODU1Mi0uNTcwMTAyQzIuNTc3ODU0LS43NDM2MTIgMi43NzYxNS0xLjQ4NzIyMyAyLjc3NjE1LTEuNzg0NjY4QzIuNzc2MTUtMi4yODA0MDkgMi40MDQzNDQtMi41Nzc4NTQgMS45MzMzOS0yLjU3Nzg1NEMxLjMzODUwMS0yLjU3Nzg1NCAuNjk0MDM3LTIuMDU3MzI1IC42OTQwMzctMS4yNjQxNEMuNjk0MDM3LS4yMjMwODMgMS44NTkwMjkgLjI0Nzg3MSAyLjkyNDg3MiAuMjQ3ODcxQzQuMTE0NjUxIC4yNDc4NzEgNC45NTc0MTEtLjY5NDAzNyA1LjQ3NzkzOS0xLjcxMDMwN0M1Ljg3NDUzMi0uMjQ3ODcxIDcuMTEzODg0IC4yNDc4NzEgOC4wMzEwMDUgLjI0Nzg3MUMxMC41NTkyODUgLjI0Nzg3MSAxMS44OTc3ODYtMi45OTkyMzMgMTEuODk3Nzg2LTMuNTQ0NTQ5QzExLjg5Nzc4Ni0zLjY2ODQ4NCAxMS43OTg2MzctMy43Njc2MzIgMTEuNjQ5OTE1LTMuNzY3NjMyQzExLjQyNjgzMi0zLjc2NzYzMiAxMS40MDIwNDUtMy42NDM2OTcgMTEuMzI3NjgzLTMuNDQ1NEMxMC42NTg0MzMtMS4yNjQxNCA5LjIyMDc4NC0uMjQ3ODcxIDguMTA1MzY2LS4yNDc4NzFDNy4yMzc4Mi0uMjQ3ODcxIDYuNzY2ODY2LS44OTIzMzQgNi43NjY4NjYtMS45MDg2MDNDNi43NjY4NjYtMi40NTM5MTggNi44NjYwMTQtMi44NTA1MTEgNy4yNjI2MDctNC40ODY0NTdMOC4xMzAxNTQtNy44NTc0OTZDOC41MDE5NTktOS4zNDQ3MTkgOS4zNDQ3MTktMTAuNDM1MzQ5IDEwLjQ4NDkyNC0xMC40MzUzNDlDMTAuNTM0NDk4LTEwLjQzNTM0OSAxMS4yMjg1MzUtMTAuNDM1MzQ5IDExLjc0OTA2My0xMC4xMTMxMThaIiBpZD0iZzAtMTIwIi8+JiN4YTs8cGF0aCBkPSJNNS42NzYyMzUtMTcuMjAyMjE1TDIuNjI3NDI4LTEzLjgzMTE3NkwyLjkyNDg3Mi0xMy41MzM3MzFMNS42NzYyMzUtMTYuMjEwNzMzTDguNDI3NTk4LTEzLjUzMzczMUw4LjcyNTA0My0xMy44MzExNzZMNS42NzYyMzUtMTcuMjAyMjE1WiIgaWQ9ImcxLTk0Ii8+JiN4YTs8L2RlZnM+JiN4YTs8ZyB0cmFuc2Zvcm09Im1hdHJpeCgxLjEzIDAgMCAxLjEzIC02My45ODYwNDMgLTYxLjAzMjUwMSkiIGlkPSJwYWdlMSI+JiN4YTs8dXNlIHhsaW5rOmhyZWY9IiNnMS05NCIgeT0iNzEuMDExNDkzIiB4PSI1OC4yOTk1MzUiLz4mI3hhOzx1c2UgeGxpbms6aHJlZj0iI2cwLTEyMCIgeT0iNzEuMDEzMTA1IiB4PSI1Ni40MTMyNjciLz4mI3hhOzwvZz4mI3hhOzwvc3ZnPg==;" parent="Q6FmVlhN1N124va3hYFK-71" vertex="1">
          <mxGeometry x="168.15000000000003" y="620" width="27.4" height="39.15" as="geometry" />
        </mxCell>
        <mxCell id="Q6FmVlhN1N124va3hYFK-89" value="" style="endArrow=classic;html=1;rounded=0;strokeWidth=3;" parent="Q6FmVlhN1N124va3hYFK-71" edge="1">
          <mxGeometry width="50" height="50" relative="1" as="geometry">
            <mxPoint x="139.99592032492163" y="510.0034369128247" as="sourcePoint" />
            <mxPoint x="139.99592032492163" y="310.0034369128247" as="targetPoint" />
            <Array as="points" />
          </mxGeometry>
        </mxCell>
        <mxCell id="Q6FmVlhN1N124va3hYFK-92" value="" style="shape=image;verticalLabelPosition=bottom;labelBackgroundColor=default;verticalAlign=top;aspect=fixed;imageAspect=0;image=data:image/svg+xml,PHN2ZyB4bWxuczp4bGluaz0iaHR0cDovL3d3dy53My5vcmcvMTk5OS94bGluayIgeG1sbnM9Imh0dHA6Ly93d3cudzMub3JnLzIwMDAvc3ZnIiB2aWV3Qm94PSItLjIzOTA1MSAtLjIyODAxNyAxMi44ODQzMSAxOS43MjA0MTgiIGhlaWdodD0iMTkuNzIwNDE4cHQiIHdpZHRoPSIxMi44ODQzMXB0IiB2ZXJzaW9uPSIxLjEiPiYjeGE7PGRlZnM+JiN4YTs8cGF0aCBkPSJNMy4xNDc5NTYtMi4wMDc3NTFDNC4yMTM3OTktMy4yMjIzMTcgNS4wODEzNDYtMy45OTA3MTYgNi4zMjA2OTktNS4xMDYxMzNDNy44MDc5MjItNi4zOTUwNiA4LjQ1MjM4NS03LjAxNDczNiA4Ljc5OTQwNC03LjM4NjU0MkMxMC41MzQ0OTgtOS4wOTY4NDkgMTEuNDAyMDQ1LTEwLjUzNDQ5OCAxMS40MDIwNDUtMTAuNzMyNzk0UzExLjIwMzc0OC0xMC45MzEwOTEgMTEuMTU0MTc0LTEwLjkzMTA5MUMxMC45ODA2NjUtMTAuOTMxMDkxIDEwLjkzMTA5MS0xMC44MzE5NDIgMTAuODA3MTU1LTEwLjY1ODQzM0MxMC4xODc0NzktOS41OTI1OSA5LjU5MjU5LTkuMDcyMDYyIDguOTQ4MTI2LTkuMDcyMDYyQzguNDI3NTk4LTkuMDcyMDYyIDguMTU0OTQxLTkuMjk1MTQ1IDcuNjgzOTg3LTkuODkwMDM0QzcuMTYzNDU4LTEwLjUwOTcxMSA2Ljc0MjA3OS0xMC45MzEwOTEgNi4wMjMyNTQtMTAuOTMxMDkxQzQuMjEzNzk5LTEwLjkzMTA5MSAzLjEyMzE2OS04LjY3NTQ2OSAzLjEyMzE2OS04LjE1NDk0MUMzLjEyMzE2OS04LjA4MDU3OSAzLjE0Nzk1Ni03LjkzMTg1NyAzLjM3MTAzOS03LjkzMTg1N0MzLjU2OTMzNi03LjkzMTg1NyAzLjU5NDEyMy04LjAzMTAwNSAzLjY2ODQ4NC04LjIwNDUxNUM0LjA4OTg2NC05LjE5NTk5NyA1LjI3OTY0Mi05LjM2OTUwNiA1Ljc1MDU5Ni05LjM2OTUwNkM2LjI3MTEyNS05LjM2OTUwNiA2Ljc2Njg2Ni05LjE5NTk5NyA3LjI4NzM5NC04Ljk3MjkxM0M4LjIyOTMwMi04LjU3NjMyIDguNjI1ODk1LTguNTc2MzIgOC44NzM3NjUtOC41NzYzMkM5LjA0NzI3NS04LjU3NjMyIDkuMTQ2NDIzLTguNTc2MzIgOS4yNzAzNTgtOC42MDExMDhDOC40NTIzODUtNy42MzQ0MTIgNy4xMTM4ODQtNi40NDQ2MzQgNS45OTg0NjctNS40MjgzNjVMMy40OTQ5NzUtMy4xMjMxNjlDMS45ODI5NjQtMS41ODYzNzEgMS4wNjU4NDMtLjEyMzkzNSAxLjA2NTg0MyAuMDQ5NTc0QzEuMDY1ODQzIC4xOTgyOTYgMS4xODk3NzkgLjI0Nzg3MSAxLjMzODUwMSAuMjQ3ODcxUzEuNTEyMDEgLjIyMzA4MyAxLjY4NTUyLS4wNzQzNjFDMi4wODIxMTItLjY5NDAzNyAyLjg3NTI5OC0xLjYxMTE1OCAzLjc5MjQxOS0xLjYxMTE1OEM0LjMxMjk0Ny0xLjYxMTE1OCA0LjU2MDgxOC0xLjQzNzY0OSA1LjA1NjU1OS0uODE3OTczQzUuNTI3NTEzLS4yNzI2NTggNS45NDg4OTMgLjI0Nzg3MSA2Ljc0MjA3OSAuMjQ3ODcxQzkuMTcxMjEgLjI0Nzg3MSAxMC41NTkyODUtMi45MDAwODUgMTAuNTU5Mjg1LTMuNDcwMTg3QzEwLjU1OTI4NS0zLjU2OTMzNiAxMC41MzQ0OTgtMy43MTgwNTggMTAuMjg2NjI3LTMuNzE4MDU4QzEwLjA4ODMzMS0zLjcxODA1OCAxMC4wNjM1NDQtMy42MTg5MSA5Ljk4OTE4My0zLjM3MTAzOUM5LjQ0Mzg2Ny0xLjkwODYwMyA3Ljk4MTQzMS0xLjMxMzcxNCA3LjAxNDczNi0xLjMxMzcxNEM2LjQ5NDIwOC0xLjMxMzcxNCA1Ljk5ODQ2Ny0xLjQ4NzIyMyA1LjQ3NzkzOS0xLjcxMDMwN0M0LjQ4NjQ1Ny0yLjEwNjkgNC4yMTM3OTktMi4xMDY5IDMuODkxNTY3LTIuMTA2OUMzLjY0MzY5Ny0yLjEwNjkgMy4zNzEwMzktMi4xMDY5IDMuMTQ3OTU2LTIuMDA3NzUxWiIgaWQ9ImcwLTEyMiIvPiYjeGE7PHBhdGggZD0iTTUuNjc2MjM1LTE3LjIwMjIxNUwyLjYyNzQyOC0xMy44MzExNzZMMi45MjQ4NzItMTMuNTMzNzMxTDUuNjc2MjM1LTE2LjIxMDczM0w4LjQyNzU5OC0xMy41MzM3MzFMOC43MjUwNDMtMTMuODMxMTc2TDUuNjc2MjM1LTE3LjIwMjIxNVoiIGlkPSJnMS05NCIvPiYjeGE7PC9kZWZzPiYjeGE7PGcgdHJhbnNmb3JtPSJtYXRyaXgoMS4xMyAwIDAgMS4xMyAtNjMuOTg2MDQzIC02MS4wMzI1MDEpIiBpZD0icGFnZTEiPiYjeGE7PHVzZSB4bGluazpocmVmPSIjZzEtOTQiIHk9IjcxLjAxMTQ5MyIgeD0iNTguMjY3MjYxIi8+JiN4YTs8dXNlIHhsaW5rOmhyZWY9IiNnMC0xMjIiIHk9IjcxLjAxMzEwNSIgeD0iNTYuNDEzMjY3Ii8+JiN4YTs8L2c+JiN4YTs8L3N2Zz4=;" parent="Q6FmVlhN1N124va3hYFK-71" vertex="1">
          <mxGeometry x="160.00000000000003" y="279.99999999999994" width="26" height="40" as="geometry" />
        </mxCell>
        <mxCell id="Q6FmVlhN1N124va3hYFK-93" value="" style="shape=image;verticalLabelPosition=bottom;labelBackgroundColor=default;verticalAlign=top;aspect=fixed;imageAspect=0;image=data:image/svg+xml,PHN2ZyB4bWxuczp4bGluaz0iaHR0cDovL3d3dy53My5vcmcvMTk5OS94bGluayIgeG1sbnM9Imh0dHA6Ly93d3cudzMub3JnLzIwMDAvc3ZnIiB2aWV3Qm94PSItLjIzOTA1MSAtLjIyODAxNyAxMy4zODg0NzkgMjUuMTU0MjM1IiBoZWlnaHQ9IjI1LjE1NDIzNXB0IiB3aWR0aD0iMTMuMzg4NDc5cHQiIHZlcnNpb249IjEuMSI+JiN4YTs8ZGVmcz4mI3hhOzxwYXRoIGQ9Ik02LjUxODk5NSAyLjc3NjE1QzUuODQ5NzQ1IDMuNzE4MDU4IDQuODgzMDUgNC41NjA4MTggMy42Njg0ODQgNC41NjA4MThDMy4zNzEwMzkgNC41NjA4MTggMi4xODEyNjEgNC41MTEyNDQgMS44MDk0NTUgMy4zNzEwMzlDMS44ODM4MTYgMy4zOTU4MjYgMi4wMDc3NTEgMy4zOTU4MjYgMi4wNTczMjUgMy4zOTU4MjZDMi44MDA5MzcgMy4zOTU4MjYgMy4yOTY2NzggMi43NTEzNjMgMy4yOTY2NzggMi4xODEyNjFTMi44MjU3MjQgMS40MTI4NjIgMi40NTM5MTggMS40MTI4NjJDMi4wNTczMjUgMS40MTI4NjIgMS4xODk3NzkgMS43MTAzMDcgMS4xODk3NzkgMi45MjQ4NzJDMS4xODk3NzkgNC4xODkwMTIgMi4yNTU2MjIgNS4wNTY1NTkgMy42Njg0ODQgNS4wNTY1NTlDNi4xNDcxODkgNS4wNTY1NTkgOC42NTA2ODIgMi43NzYxNSA5LjM0NDcxOSAuMDI0Nzg3TDExLjc3Mzg1LTkuNjQyMTY0QzExLjc5ODYzNy05Ljc2NjA5OSAxMS44NDgyMTItOS45MTQ4MjEgMTEuODQ4MjEyLTEwLjA2MzU0NEMxMS44NDgyMTItMTAuNDM1MzQ5IDExLjU1MDc2Ny0xMC42ODMyMiAxMS4xNzg5NjEtMTAuNjgzMjJDMTAuOTU1ODc4LTEwLjY4MzIyIDEwLjQzNTM0OS0xMC41ODQwNzIgMTAuMjM3MDUzLTkuODQwNDZMOC40MDI4MTEtMi41NTMwNjdDOC4yNzg4NzYtMi4xMDY5IDguMjc4ODc2LTIuMDU3MzI1IDguMDgwNTc5LTEuNzg0NjY4QzcuNTg0ODM4LTEuMDkwNjMgNi43NjY4NjYtLjI0Nzg3MSA1LjU3NzA4Ny0uMjQ3ODcxQzQuMTg5MDEyLS4yNDc4NzEgNC4wNjUwNzctMS42MTExNTggNC4wNjUwNzctMi4yODA0MDlDNC4wNjUwNzctMy42OTMyNzEgNC43MzQzMjctNS42MDE4NzQgNS40MDM1NzgtNy4zODY1NDJDNS42NzYyMzUtOC4xMDUzNjYgNS44MjQ5NTgtOC40NTIzODUgNS44MjQ5NTgtOC45NDgxMjZDNS44MjQ5NTgtOS45ODkxODMgNS4wODEzNDYtMTAuOTMxMDkxIDMuODY2NzgtMTAuOTMxMDkxQzEuNTg2MzcxLTEwLjkzMTA5MSAuNjY5MjUtNy4zMzY5NjggLjY2OTI1LTcuMTM4NjcxQy42NjkyNS03LjAzOTUyMyAuNzY4Mzk5LTYuOTE1NTg4IC45NDE5MDgtNi45MTU1ODhDMS4xNjQ5OTItNi45MTU1ODggMS4xODk3NzktNy4wMTQ3MzYgMS4yODg5MjctNy4zNjE3NTVDMS44ODM4MTYtOS40NDM4NjcgMi44MjU3MjQtMTAuNDM1MzQ5IDMuNzkyNDE5LTEwLjQzNTM0OUM0LjAxNTUwMy0xMC40MzUzNDkgNC40MzY4ODMtMTAuNDM1MzQ5IDQuNDM2ODgzLTkuNjE3Mzc3QzQuNDM2ODgzLTguOTcyOTEzIDQuMTY0MjI1LTguMjU0MDg5IDMuNzkyNDE5LTcuMzEyMTgxQzIuNTc3ODU0LTQuMDY1MDc3IDIuNTc3ODU0LTMuMjQ3MTA0IDIuNTc3ODU0LTIuNjUyMjE1QzIuNTc3ODU0LS4yOTc0NDUgNC4yNjMzNzMgLjI0Nzg3MSA1LjUwMjcyNiAuMjQ3ODcxQzYuMjIxNTUgLjI0Nzg3MSA3LjExMzg4NCAuMDI0Nzg3IDcuOTgxNDMxLS44OTIzMzRMOC4wMDYyMTgtLjg2NzU0N0M3LjYzNDQxMiAuNTk0ODg5IDcuMzg2NTQyIDEuNTYxNTg0IDYuNTE4OTk1IDIuNzc2MTVaIiBpZD0iZzAtMTIxIi8+JiN4YTs8cGF0aCBkPSJNNS42NzYyMzUtMTcuMjAyMjE1TDIuNjI3NDI4LTEzLjgzMTE3NkwyLjkyNDg3Mi0xMy41MzM3MzFMNS42NzYyMzUtMTYuMjEwNzMzTDguNDI3NTk4LTEzLjUzMzczMUw4LjcyNTA0My0xMy44MzExNzZMNS42NzYyMzUtMTcuMjAyMjE1WiIgaWQ9ImcxLTk0Ii8+JiN4YTs8L2RlZnM+JiN4YTs8ZyB0cmFuc2Zvcm09Im1hdHJpeCgxLjEzIDAgMCAxLjEzIC02My45ODYwNDMgLTYxLjAzMjUwMSkiIGlkPSJwYWdlMSI+JiN4YTs8dXNlIHhsaW5rOmhyZWY9IiNnMS05NCIgeT0iNzEuMDExNDkzIiB4PSI1OC40MzkzOTEiLz4mI3hhOzx1c2UgeGxpbms6aHJlZj0iI2cwLTEyMSIgeT0iNzEuMDEzMTA1IiB4PSI1Ni40MTMyNjciLz4mI3hhOzwvZz4mI3hhOzwvc3ZnPg==;" parent="1" vertex="1">
          <mxGeometry x="470" y="339.15" width="21.24" height="40.85" as="geometry" />
        </mxCell>
      </root>
    </mxGraphModel>
  </diagram>
</mxfile>
